<svg viewBox="0 0 96 94" xmlns="http://www.w3.org/2000/svg">
	<path fill="currentColor" d="M48 0C21.496 0 0 21.492 0 48c0 21.208 13.752 39.2 32.828 45.548C35.224 93.992 36 92.504 36 91.24v-8.936c-13.352 2.904-16.132-5.664-16.132-5.664-2.184-5.548-5.332-7.024-5.332-7.024-4.356-2.98.332-2.916.332-2.916 4.82.336 7.356 4.948 7.356 4.948 4.28 7.336 11.228 5.216 13.968 3.988.428-3.1 1.672-5.22 3.048-6.416C28.58 68 17.372 63.884 17.372 45.496c0-5.244 1.876-9.524 4.944-12.884-.496-1.212-2.14-6.096.468-12.704 0 0 4.032-1.288 13.204 4.92 3.828-1.064 7.932-1.596 12.012-1.616 4.08.02 8.188.552 12.024 1.616 9.164-6.208 13.188-4.92 13.188-4.92 2.612 6.612.968 11.496.472 12.704 3.08 3.36 4.94 7.644 4.94 12.884 0 18.436-11.228 22.496-21.916 23.684C58.428 70.668 60 73.588 60 78.068V91.24c0 1.276.768 2.776 3.204 2.304C82.264 87.188 96 69.2 96 48 96 21.492 74.508 0 48 0z"/>
</svg>
