<svg viewBox="0 0 93 77" xmlns="http://www.w3.org/2000/svg">
	<path fill="currentColor" d="M70.596 75.952a4.566 4.566 0 0 0 4.251.557 4.456 4.456 0 0 0 2.78-3.226c3.337-15.682 11.432-55.377 14.47-69.642a2.998 2.998 0 0 0-1-2.91 3.075 3.075 0 0 0-3.06-.538c-16.1 5.96-65.687 24.564-85.954 32.064a3.175 3.175 0 0 0-2.081 3.068 3.181 3.181 0 0 0 2.277 2.933c9.089 2.72 21.02 6.502 21.02 6.502s5.575 16.838 8.482 25.401c.365 1.075 1.206 1.92 2.316 2.212a3.327 3.327 0 0 0 3.114-.795L49.1 60.354S62.816 70.41 70.596 75.952zm-42.278-33.32l6.447 21.266 1.432-13.467 39.11-35.274a1.066 1.066 0 0 0 .127-1.448 1.091 1.091 0 0 0-1.443-.245L28.318 42.632z"/>
</svg>
