<svg viewBox="0 0 96 79" xmlns="http://www.w3.org/2000/svg">
	<path fill="currentColor" d="M96 9.236a39.323 39.323 0 0 1-11.312 3.1C88.756 9.9 91.88 6.04 93.348 1.44A39.454 39.454 0 0 1 80.84 6.22 19.662 19.662 0 0 0 66.464 0c-12.716 0-22.06 11.864-19.188 24.18C30.912 23.36 16.4 15.52 6.684 3.604c-5.16 8.852-2.676 20.432 6.092 26.296a19.612 19.612 0 0 1-8.916-2.464c-.216 9.124 6.324 17.66 15.796 19.56a19.741 19.741 0 0 1-8.896.336c2.504 7.824 9.776 13.516 18.4 13.676C20.88 67.5 10.448 70.4 0 69.168a55.756 55.756 0 0 0 30.192 8.848c36.568 0 57.228-30.884 55.98-58.584A40.099 40.099 0 0 0 96 9.236z"/>
</svg>
